<?xml version="1.0" encoding="utf-8"?>
<!-- Generator: Adobe Illustrator 27.5.0, SVG Export Plug-In . SVG Version: 6.00 Build 0)  -->
<svg version="1.1" xmlns="http://www.w3.org/2000/svg" xmlns:xlink="http://www.w3.org/1999/xlink" x="0px" y="0px"
	 viewBox="0 0 500 500" style="enable-background:new 0 0 500 500;" xml:space="preserve">
<g id="BACKGROUND">
	<g>
		<rect style="opacity:0.43;fill:#E9F4FF;" width="500" height="500"/>
		<g>
			<g>
				<path style="fill:#CBE3FF;" d="M362.125,113.547c-26.007-9.294-54.558-8.397-80.105,2.095
					c-49.926,20.504-157.365,78.614-176.422,204.287c-24.987,164.782,264.057,99.95,323.486-31.065
					C473.16,191.698,418.058,133.535,362.125,113.547z"/>
				<path style="fill:#CBE3FF;" d="M144.366,58.324c-17.27,2.994-32.702,12.927-42.023,27.771
					c-7.595,12.095-12.362,29.122-6.875,52.168c13.507,56.728,138.444-9.455,137.093-53.352
					C231.454,48.923,173.152,53.334,144.366,58.324z"/>
			</g>
		</g>
	</g>
</g>
<g id="OBJECTS">
	<g>
		<ellipse style="fill:#EFEFEF;" cx="257" cy="434.5" rx="77" ry="7.5"/>
		<g>
			<g>
				<g>
					<path style="fill:#FFAD96;" d="M179.422,217.895l-5.292-1.78c0,0,0.418-3.38-0.63-5.816c-1.048-2.436-4.14-5.631-4.14-5.631
						s-0.184-3.51-1.73-5.108c-1.546-1.598-2.353-1.973-2.693-3.309c-0.341-1.336-3.484-1.388-3.3,2.123
						c0.184,3.51,1.017,2.313,1.096,4.855c0.079,2.541,1.153,3.405,1.153,3.405l-1.1,0.708c0,0-7.048-5.316-13.022-9.769
						c-5.974-4.452-7.31-4.111-7.938-2.67c-0.629,1.441,4.874,5.16,4.874,5.16l13.153,9.166l-0.733,0.472
						c0,0-17.135-9.715-19.414-10.841c-2.279-1.126-3.249-1.021-4.48,0.289c-1.231,1.31,2.725,3.431,2.725,3.431
						s-1.231,1.31-0.654,3.013c0.577,1.703,18.837,9.139,18.837,9.139l-0.628,1.441c0,0-14.305-5.315-16.112-5.707
						c-1.808-0.393-1.493,2.515,0.551,3.274c2.044,0.759,13.938,5.551,15.85,6.913c1.913,1.362,9.353,4.871,11.423,4.058
						c2.069-0.813,4.113-0.053,4.951,0.444c0.838,0.498,3.982,0.549,4.349,0.313C176.883,225.231,179.422,217.895,179.422,217.895z"
						/>
				</g>
				<g>
					<polygon style="fill:#FFAD95;" points="250.12,151.946 251.337,179.327 267.765,177.501 263.506,151.946 					"/>
				</g>
				<g>
					<path style="fill:#191B1E;" d="M250.12,154.743c0,0,5.624,5.391,14.677,4.948l-0.838-4.702L250.12,154.743z"/>
				</g>
				<g>
					<polygon style="fill:#FFAD95;" points="222.74,381.942 222.74,400.195 233.083,399.587 236.734,379.508 					"/>
				</g>
				<g>
					<polygon style="fill:#FFAD95;" points="290.886,381.942 290.886,400.195 280.543,399.587 276.892,379.508 					"/>
				</g>
				<g>
					<path style="fill:#5F41E9;" d="M226.39,263.902l-1.825,43.809l-5.626,71.288c0,0,8.894,6.917,22.235,2.47
						c0,0,13.941-101.996,15.811-106.727c0.437-1.105,4.447,1.976,4.447,1.976l10.87,103.268c0,0,10.376,6.423,24.211,0.988
						l-6.235-123.766C290.278,257.209,268.389,251.549,226.39,263.902z"/>
				</g>
				<g>
					<path style="fill:#FFAD95;" d="M241.602,123.349l1.825,11.561c0,0-3.651-3.651-6.085,0.608
						c-2.434,4.259,3.042,12.777,7.301,10.952c0,0,1.825,9.127,10.952,10.344c9.127,1.217,15.211-3.651,17.037-7.301
						c1.825-3.651,1.825-4.259,1.825-4.259s4.259,1.217,6.085-3.651c1.825-4.868,0-9.127-2.434-9.735
						c-1.771-0.443-3.042,3.042-3.042,3.042s5.476-18.254-7.91-21.904C253.771,109.354,242.21,113.005,241.602,123.349z"/>
				</g>
				<g>
					<path style="fill:#2E353D;" d="M242.818,135.518c0,0-10.952-14.603-7.91-25.555c3.042-10.952,15.211-1.825,15.211-1.825
						s-0.609-13.994,9.735-17.037c10.344-3.042,10.952,10.952,18.862,10.952c7.91,0,14.603,8.518,7.91,15.211
						s-9.735,17.645-9.735,17.645l-2.434-0.609l0.345-7.241c0.135-2.844-2.088-5.239-4.934-5.326
						c-4.371-0.133-10.412-1.103-13.664-5.078c-4.001-4.89-8.002-1.336-9.867,0.934c-0.703,0.855-1.102,1.915-1.146,3.021
						l-0.548,13.69L242.818,135.518z"/>
				</g>
				<g>
					<path style="fill:#2E353D;" d="M226.39,266.335l-0.367,6.366c0,0,11.717-6.662,28.355-5.149
						c13.386,1.217,32.237-2.317,32.237-2.317l-13.983-4.376l-21.904-1.825l-17.037,1.825L226.39,266.335z"/>
				</g>
				<g>
					<polygon style="fill:#FA6142;" points="248.295,162.29 269.59,161.073 270.807,165.332 267.157,165.332 273.85,181.76 
						248.295,182.369 248.903,170.2 241.602,170.2 241.602,162.898 					"/>
				</g>
				<g>
					<path style="fill:#FA6142;" d="M249.308,172.689l-17.553,10.325c0,0-8.777,45.394-6.711,85.147c0,0,29.943-7.744,46.98-3.098
						s26.846-7.228,26.846-7.228l-6.158-82.16l-25.334-6.085L249.308,172.689z"/>
				</g>
				<g>
					<polygon style="fill:#2E353D;" points="241.602,170.2 259.855,169.591 248.81,172.066 					"/>
				</g>
				<g>
					<polygon style="fill:#2E353D;" points="270.807,165.332 263.506,165.332 267.674,166.603 					"/>
				</g>
				<g>
					<path style="fill:#2E353D;" d="M256.813,274.854l-3.042,1.825l-9.127,55.369c0,0-2.306,40.086-2.066,39.209
						C242.818,370.381,256.813,274.854,256.813,274.854z"/>
				</g>
				<g>
					<polygon style="fill:#2E353D;" points="292.862,310.398 290.685,382.651 294.315,381.75 296.971,380.725 					"/>
				</g>
				<g>
					<path style="fill:#FFFFFF;" d="M257.849,274.665c-0.643-2.663,0.224-6.419,0.262-6.578l0.296,0.069
						c-0.009,0.039-0.887,3.845-0.262,6.437L257.849,274.665z"/>
				</g>
				<g>
					<path style="fill:#FFFFFF;" d="M289.563,274.523c-8.534,0-11.234-7.167-11.262-7.244l0.286-0.103
						c0.029,0.078,2.981,7.899,12.537,6.965l0.03,0.303C290.602,274.498,290.072,274.523,289.563,274.523z"/>
				</g>
				<g>
					<path style="fill:#FFFFFF;" d="M289.604,276.15c-10.219,0-13.452-8.579-13.485-8.672l0.286-0.103
						c0.034,0.095,3.586,9.506,15.075,8.377l0.03,0.303C290.85,276.119,290.214,276.15,289.604,276.15z"/>
				</g>
				<g>
					<path style="fill:#FFFFFF;" d="M227.813,274.529c-0.546,0-1.116-0.027-1.711-0.086l0.03-0.303
						c9.557,0.938,12.562-6.268,12.591-6.341l0.282,0.113C238.977,267.984,236.253,274.529,227.813,274.529z"/>
				</g>
				<g>
					<path style="fill:#FFFFFF;" d="M227.651,276.15c-0.61,0-1.245-0.03-1.905-0.095l0.03-0.303
						c11.491,1.125,15.04-8.282,15.075-8.377l0.286,0.103C241.103,267.57,237.869,276.15,227.651,276.15z"/>
				</g>
				<g>
					<g>
						<path style="fill:#FFAD96;" d="M290.886,251.124c0,0-7.132-10.019-9.563-11.313c-2.43-1.295-11.815,0.13-14.101,1.665
							c-2.286,1.535-4.283,8.73-3.788,9.178c0.496,0.448,3.869,1.694,3.869,1.694s-0.351,2.382,1.583,3.229
							c1.935,0.847,2.43,1.295,2.43,1.295s0.144,2.83,1.583,3.229c1.439,0.399,4.716-0.241,4.716-0.241s0.399-1.439,2.734-2.031
							S290.886,251.124,290.886,251.124z"/>
					</g>
					<g>
						<path style="fill:#FFAD96;" d="M268.171,245.117c0,0-5.045-1.326-4.363-4.594s0.888,0.322,5.405-1.055
							c4.517-1.377,6.937-2.51,9.241,0.837C280.758,243.65,268.171,245.117,268.171,245.117z"/>
					</g>
				</g>
				<g>
					<polygon style="fill:#FFFFFF;" points="289.172,274.37 288.868,274.353 289.205,268.009 281.58,268.009 280.996,270.928 
						280.698,270.869 281.331,267.704 289.526,267.704 					"/>
				</g>
				<g>
					
						<rect x="285.258" y="265.411" transform="matrix(0.0767 -0.9971 0.9971 0.0767 -5.0622 533.2889)" style="fill:#FFFFFF;" width="0.304" height="7.933"/>
				</g>
				<g>
					<path style="fill:#2E353D;" d="M176.422,216.886c0,0-0.019,0.013-0.056,0.043c-0.342,0.277-3.52,3.163-4.563,8.031
						c-0.036,0.17-0.174,0-0.174,0l2.434,1.217"/>
				</g>
				<g>
					<path style="fill:#2E353D;" d="M230.041,310.144c0,0-3.651,9.127-2.434,19.47c1.217,10.344,11.561-9.127,10.344-16.428
						C236.734,305.885,230.649,307.102,230.041,310.144z"/>
				</g>
				<g>
					<path style="fill:#2E353D;" d="M277.5,318.054c0,0-3.042,5.476,1.217,15.211c4.259,9.735,3.651-9.735,2.434-13.994
						C279.934,315.012,277.5,318.054,277.5,318.054z"/>
				</g>
				<g>
					<polygon style="fill:#5F41E9;" points="219.089,375.249 214.83,375.857 213.004,383.159 241.602,384.984 243.427,377.682 
						241.485,377.605 					"/>
				</g>
				<g>
					<polygon style="fill:#5F41E9;" points="274.081,378.467 269.888,379.432 268.683,386.861 297.333,386.275 298.538,378.845 
						296.596,378.931 					"/>
				</g>
				<g>
					<polygon style="fill:#2E353D;" points="242.818,377.682 214.83,375.857 219.089,375.249 					"/>
				</g>
				<g>
					<polygon style="fill:#2E353D;" points="269.59,379.508 272.188,378.903 296.362,378.899 269.777,380.116 					"/>
				</g>
				<g>
					<polygon style="fill:#2E353D;" points="281.759,194.538 289.669,215.225 287.236,220.701 288.452,223.744 278.109,238.347 
						295.754,219.484 					"/>
				</g>
				<g>
					<polygon style="fill:#2E353D;" points="285.41,247.845 294.537,255.383 298.345,250.843 297.981,245.972 					"/>
				</g>
				<g>
					<path style="fill:#FA6142;" d="M293.117,175.664l19.673,49.69l-18.389,28.124h0c-6.605-2.705-12.082-7.594-15.516-13.851
						l-0.71-1.293l11.899-14.603l-2.163-2.704l3.245-4.868l-9.397-21.566C281.759,194.594,281.759,174.042,293.117,175.664z"/>
				</g>
				<g>
					<path style="fill:#FF765F;" d="M308.503,214.526c0,0-7.229,7.182-0.558,18.24l4.845-7.197L308.503,214.526z"/>
				</g>
				<g>
					<g>
						<path style="fill:#FA6142;" d="M261.072,204.882l-54.391,31.744l-33.283-4.62l0,0c-0.375-7.127,1.708-14.168,5.9-19.944
							l0.866-1.194l18.285,4.524l1.522-3.111l5.787,0.856l26.441-30.484C232.199,182.653,257.69,193.919,261.072,204.882z"/>
					</g>
				</g>
				<g>
					<polyline style="fill:#2E353D;" points="287.844,221.31 295.145,223.135 289.669,223.744 287.844,221.31 					"/>
				</g>
				<g>
					<polyline style="fill:#2E353D;" points="200.227,212.183 205.703,219.484 198.401,215.225 200.227,212.183 					"/>
				</g>
				<g>
					<polygon style="fill:#2E353D;" points="206.92,236.521 226.126,225.277 228.824,213.4 222.131,224.961 					"/>
				</g>
				<g>
					<polygon style="fill:#FFFFFF;" points="238.559,389.852 219.697,389.852 219.697,392.894 222.131,392.894 222.131,417.84 
						232.475,417.84 233.692,398.37 236.125,397.761 236.125,393.502 238.559,392.894 					"/>
				</g>
				<g>
					<polygon style="fill:#FFFFFF;" points="274.458,389.852 293.32,389.852 293.32,392.894 290.886,392.894 290.886,417.84 
						280.543,417.84 279.326,398.37 276.892,397.761 276.892,393.502 274.458,392.894 					"/>
				</g>
				<g>
					<g>
						<path style="fill:#191B1E;" d="M200.227,430.009c0,0-0.608,2.434,0,4.259c0.608,1.825,12.169,3.042,18.862,0.609
							c6.693-2.434,4.868-3.042,9.735-3.042s6.085-1.217,6.085-1.825c0-0.608-0.569-3.846-0.569-3.846L200.227,430.009z"/>
					</g>
					<g>
						<path style="fill:#2E353D;" d="M220.306,402.021c0,0,1.825,2.434,5.476,3.042c3.651,0.608,7.301-3.042,9.735-3.042
							l-1.217,24.947c0,0-3.042,2.434-6.693,1.217c-3.651-1.217-8.518,5.476-15.82,4.868c-7.301-0.608-10.952-1.217-11.561-3.042
							c-0.608-1.825,9.127-7.301,13.994-8.518c4.868-1.217,4.259-9.127,3.651-13.386
							C217.263,403.846,216.655,398.37,220.306,402.021z"/>
					</g>
					<g>
						<path style="fill:#191B1E;" d="M218.001,406.489c-0.374-0.094-0.737,0.185-0.737,0.571v2.262c0,2.434,0,2.434,1.825,3.042
							c1.825,0.608,7.91,1.217,9.735,1.217c1.825,0,4.259-1.825,4.259-2.434c0-0.608-2.434-3.042-4.868-3.042
							C226.493,408.105,220.538,407.129,218.001,406.489z"/>
					</g>
					<g>
						<path style="fill:#191B1E;" d="M218.001,413.79c-0.374-0.095-0.737,0.185-0.737,0.571v2.262c0,2.434,0,2.434,1.825,3.042
							c1.825,0.608,7.91,1.217,9.735,1.217c1.825,0,4.259-1.825,4.259-2.434c0-0.608-2.434-3.042-4.868-3.042
							C226.493,415.407,220.538,414.431,218.001,413.79z"/>
					</g>
					<g>
						<path style="fill:#191B1E;" d="M215.133,433.686l-0.606-0.051c0.581-6.966-6.444-9.206-6.743-9.297l0.178-0.582
							C208.04,423.779,215.755,426.226,215.133,433.686z"/>
					</g>
					<g>
						<path style="fill:#191B1E;" d="M230.345,424.533c0,1.176-0.817,2.13-1.825,2.13c-1.008,0-1.825-0.953-1.825-2.13
							c0-1.176,0.817-2.13,1.825-2.13C229.528,422.404,230.345,423.357,230.345,424.533z"/>
					</g>
				</g>
				<g>
					<g>
						<path style="fill:#191B1E;" d="M312.52,430.009c0,0,0.608,2.434,0,4.259c-0.608,1.825-12.169,3.042-18.862,0.609
							c-6.693-2.434-4.868-3.042-9.735-3.042c-4.868,0-6.085-1.217-6.085-1.825c0-0.608,0.569-3.846,0.569-3.846L312.52,430.009z"/>
					</g>
					<g>
						<path style="fill:#2E353D;" d="M292.441,402.021c0,0-1.825,2.434-5.476,3.042c-3.651,0.608-7.301-3.042-9.735-3.042
							l1.217,24.947c0,0,3.042,2.434,6.693,1.217c3.651-1.217,8.518,5.476,15.82,4.868c7.301-0.608,10.952-1.217,11.561-3.042
							c0.608-1.825-9.127-7.301-13.994-8.518c-4.868-1.217-4.259-9.127-3.651-13.386
							C295.484,403.846,296.092,398.37,292.441,402.021z"/>
					</g>
					<g>
						<path style="fill:#191B1E;" d="M294.746,406.489c0.374-0.094,0.737,0.185,0.737,0.571v2.262c0,2.434,0,2.434-1.825,3.042
							c-1.825,0.608-7.91,1.217-9.735,1.217c-1.825,0-4.259-1.825-4.259-2.434c0-0.608,2.434-3.042,4.868-3.042
							C286.254,408.105,292.209,407.129,294.746,406.489z"/>
					</g>
					<g>
						<path style="fill:#191B1E;" d="M294.746,413.79c0.374-0.095,0.737,0.185,0.737,0.571v2.262c0,2.434,0,2.434-1.825,3.042
							c-1.825,0.608-7.91,1.217-9.735,1.217c-1.825,0-4.259-1.825-4.259-2.434c0-0.608,2.434-3.042,4.868-3.042
							C286.254,415.407,292.209,414.431,294.746,413.79z"/>
					</g>
					<g>
						<path style="fill:#191B1E;" d="M297.614,433.686c-0.622-7.46,7.093-9.907,7.171-9.931l0.178,0.582
							c-0.299,0.091-7.323,2.331-6.743,9.297L297.614,433.686z"/>
					</g>
					<g>
						<path style="fill:#191B1E;" d="M282.402,424.533c0,1.176,0.817,2.13,1.825,2.13c1.008,0,1.825-0.953,1.825-2.13
							c0-1.176-0.817-2.13-1.825-2.13C283.219,422.404,282.402,423.357,282.402,424.533z"/>
					</g>
				</g>
				<g>
					<ellipse style="fill:#2E353D;" cx="251.945" cy="129.738" rx="1.217" ry="2.13"/>
				</g>
				<g>
					<path style="fill:#2E353D;" d="M265.94,129.738c0,1.176-0.545,2.13-1.217,2.13c-0.672,0-1.217-0.953-1.217-2.13
						c0-1.176,0.545-2.13,1.217-2.13C265.395,127.608,265.94,128.561,265.94,129.738z"/>
				</g>
				<g>
					<polygon style="fill:#FF5777;" points="257.421,127 256.813,140.385 261.681,139.169 					"/>
				</g>
				<g>
					<path style="fill:#2E353D;" d="M254.789,123.167c-0.855-0.724-1.953-1.095-3.073-1.125c-1.668-0.045-4.232,0.091-4.638,1.307
						c-0.609,1.825,0.608,2.434,4.259,2.434c3.651,0,4.259-1.825,3.651-2.434C254.927,123.288,254.86,123.227,254.789,123.167z"/>
				</g>
				<g>
					<path style="fill:#2E353D;" d="M262.544,123.167c0.855-0.724,1.953-1.095,3.073-1.125c1.668-0.045,4.233,0.091,4.638,1.307
						c0.608,1.825-0.608,2.434-4.259,2.434c-3.651,0-4.259-1.825-3.651-2.434C262.406,123.288,262.473,123.227,262.544,123.167z"/>
				</g>
				<g>
					<path style="fill:#EF947F;" d="M241.602,136.735c0,0-1.825-1.217-2.434,1.217c-0.609,2.434,1.217,5.476,3.651,5.476
						c2.434,0-1.825-2.434-0.608-3.651S241.602,136.735,241.602,136.735z"/>
				</g>
				<g>
					<path style="fill:#EF947F;" d="M276.931,135.518c0,0,1.825-1.217,2.434,1.217c0.608,2.434-1.217,5.476-3.651,5.476
						c-2.434,0,1.825-2.434,0.608-3.651C275.105,137.343,276.931,135.518,276.931,135.518z"/>
				</g>
				<g>
					<path style="fill:#FFFFFF;" d="M265.426,147.715c1.309-1.843-0.039-4.434-2.3-4.467c-0.032,0-0.065-0.001-0.098-0.001
						c-3.301,0-3.772,1.886-7.073,0.472c-3.301-1.415-4.244,1.415-2.358,3.772c1.886,2.358,4.739,3.163,7.073,2.829
						C262.903,150.001,264.488,149.036,265.426,147.715z"/>
				</g>
				<g>
					<path style="fill:#2E353D;" d="M250.424,135.822c-4.11,0-7.454-3.343-7.454-7.453c0-4.11,3.344-7.454,7.454-7.454
						s7.453,3.344,7.453,7.454C257.878,132.479,254.534,135.822,250.424,135.822z M250.424,121.523
						c-3.774,0-6.845,3.071-6.845,6.845c0,3.774,3.071,6.845,6.845,6.845c3.774,0,6.845-3.071,6.845-6.845
						C257.269,124.594,254.198,121.523,250.424,121.523z"/>
				</g>
				<g>
					<path style="fill:#2E353D;" d="M266.244,135.822c-4.11,0-7.454-3.343-7.454-7.453c0-4.11,3.343-7.454,7.454-7.454
						c4.11,0,7.453,3.344,7.453,7.454C273.697,132.479,270.354,135.822,266.244,135.822z M266.244,121.523
						c-3.774,0-6.845,3.071-6.845,6.845c0,3.774,3.071,6.845,6.845,6.845s6.845-3.071,6.845-6.845
						C273.089,124.594,270.018,121.523,266.244,121.523z"/>
				</g>
				<g>
					<path style="fill:#2E353D;" d="M259.79,125.242c-2.036-1.226-2.782-0.143-2.812-0.097l-0.514-0.326
						c0.011-0.017,1.071-1.645,3.64-0.099L259.79,125.242z"/>
				</g>
				<g>
					
						<rect x="275.656" y="126.951" transform="matrix(0.406 -0.9139 0.9139 0.406 45.4888 329.1717)" style="fill:#2E353D;" width="0.609" height="5.285"/>
				</g>
				<g>
					
						<rect x="239.428" y="129.749" transform="matrix(0.5315 -0.847 0.847 0.5315 3.1848 265.8654)" style="fill:#2E353D;" width="5.043" height="0.608"/>
				</g>
				<g>
					<path style="fill:#2E353D;" d="M251.954,112.167c-0.012-0.048-1.247-4.764-5.926-7.104c-4.61-2.305-8.735,1.727-8.776,1.768
						l-0.43-0.43c0.044-0.044,4.474-4.386,9.478-1.882c4.936,2.468,6.193,7.296,6.243,7.5L251.954,112.167z"/>
				</g>
				<g>
					<path style="fill:#2E353D;" d="M284.676,119.922l-0.358-0.492c4.021-2.921,6.161-5.65,6.544-8.346
						c0.26-1.832-0.325-3.682-1.737-5.498c-4.082-5.247-11.306-3.346-11.378-3.326l-0.161-0.587
						c0.077-0.021,7.686-2.032,12.019,3.54c1.518,1.951,2.143,3.955,1.859,5.956C291.058,114.037,288.838,116.899,284.676,119.922z"
						/>
				</g>
				<g>
					<path style="fill:#2E353D;" d="M249.526,109.142c-0.03-0.095-0.19-0.614-0.375-1.423c-1.837-5.207-7.838-6.268-7.903-6.279
						l0.1-0.6c0.06,0.01,4.858,0.859,7.4,4.708c-0.556-3.876-0.546-9.916,3.932-13.172c6.782-4.932,13.659-0.663,13.728-0.619
						l-0.326,0.513c-0.065-0.041-6.603-4.086-13.044,0.598c-5.124,3.727-3.973,11.636-3.27,14.771
						c0.143,0.426,0.261,0.878,0.348,1.356L249.526,109.142z"/>
				</g>
				<g>
					<path style="fill:#2E353D;" d="M138.164,202.448l17.037,8.518l-20.073-10.736C135.128,200.23,136.339,201.839,138.164,202.448z
						"/>
				</g>
				<g>
					<path style="fill:#2E353D;" d="M162.503,201.745c0,0,1.825-0.514,3.651-0.514l-3.497,1.12L162.503,201.745z"/>
				</g>
				<g>
					<path style="fill:#2E353D;" d="M158.465,218.932l-0.443-0.111c0.012-0.051,1.325-5.04,6.914-5.04v0.456
						C159.709,214.237,158.513,218.74,158.465,218.932z"/>
				</g>
				<g>
					<path style="fill:#2E353D;" d="M169.418,217.568c-2.642-1.016-4.309-2.479-4.953-4.349c-0.896-2.601,0.519-5.006,0.58-5.108
						l0.392,0.235c-0.014,0.023-1.366,2.331-0.538,4.729c0.599,1.734,2.175,3.103,4.684,4.068L169.418,217.568z"/>
				</g>
				<g>
					<path style="fill:#2E353D;" d="M155.421,217.111l-0.44-0.12c1.829-6.709,7.355-9.844,7.411-9.875l0.222,0.399
						C162.56,207.545,157.199,210.594,155.421,217.111z"/>
				</g>
				<g>
					<path style="fill:#2E353D;" d="M270.199,240.78c0,0-3.651,1.217-4.868,3.042l-0.967-0.973
						C264.364,242.849,267.157,241.389,270.199,240.78z"/>
				</g>
			</g>
			<g>
				
					<text transform="matrix(1 0 0 1 237.9448 198.7769)" style="fill:#2E353D; font-family:'Montserrat-Black'; font-size:10.3251px;">ABOUT</text>
				
					<text transform="matrix(1 0 0 1 237.9448 218.1064)" style="fill:#2E353D; font-family:'Montserrat-Black'; font-size:25.5317px;">ME</text>
			</g>
		</g>
	</g>
	<g>
		<circle style="fill:none;stroke:#2E353D;stroke-miterlimit:10;stroke-dasharray:1,4;" cx="81.5" cy="247.5" r="42"/>
		
			<line style="fill:none;stroke:#2E353D;stroke-miterlimit:10;stroke-dasharray:1,4;" x1="123.5" y1="247.5" x2="207.5" y2="244.5"/>
	</g>
	<g>
		<g>
			<g>
				<text transform="matrix(1 0 0 1 54.6035 269.916)" style="fill:#2E353D; font-family:'Montserrat-Black'; font-size:7.4553px;">ILLUSTRATOR</text>
			</g>
			<g>
				<path style="fill:#2E353D;" d="M80.794,213l0.607,17.612c0,0-3.224,2.521-1.916,5.815l-2.335-2.779c0,0,1.215-4.251,1.215-4.858
					s0.607-4.859,0.607-6.073S80.794,213,80.794,213z"/>
				<g>
					<g>
						<path style="fill:#C6C6C6;" d="M82.453,213v17.683c1.385,0.392,2.4,1.663,2.4,3.173c0,1.823-1.478,3.301-3.301,3.301
							c-1.823,0-3.301-1.478-3.301-3.301c0-1.51,1.016-2.781,2.401-3.173V213l-12.146,26.114l7.828,6.523l0.652,7.175h4.566h4.566
							l0.652-7.175l7.828-6.523L82.453,213z"/>
						<rect x="76.824" y="254.117" style="fill:#C6C6C6;" width="9.785" height="2.609"/>
					</g>
					<g>
						<polygon style="fill:#E2E2E2;" points="68.648,238.811 68.507,239.114 68.648,239.231 						"/>
						<path style="fill:#E2E2E2;" d="M82.453,213v17.683c1.385,0.392,2.4,1.663,2.4,3.173c0,1.823-1.478,3.301-3.301,3.301
							c-0.051,0-0.101-0.005-0.152-0.008v15.663h0.152h4.566l0.652-7.175l7.828-6.523L82.453,213z"/>
					</g>
					<polygon style="fill:#E2E2E2;" points="81.401,254.117 81.401,256.726 86.867,256.726 86.867,253.689 					"/>
					<path style="fill:#EAEAEA;" d="M82.616,230.612c0,0,4.519,3.036,8.029,0L82.616,213V230.612z"/>
				</g>
				<polygon style="fill:#2E353D;" points="94.762,239.114 85.045,244.58 86.259,253.082 86.867,245.794 				"/>
			</g>
		</g>
		<g>
			<g>
				
					<text transform="matrix(1 0 0 1 67.8164 403.4072)" style="fill:#2E353D; font-family:'Montserrat-Black'; font-size:7.4553px;">TRAVEL</text>
			</g>
			<path style="fill:#FA6142;" d="M96.501,361.517c0-7.964-6.456-14.42-14.42-14.42c-7.964,0-14.42,6.456-14.42,14.42
				c0,2.448,0.614,4.751,1.691,6.771l-0.002,0.001l12.295,19.01l13.169-19.01l-0.002-0.002
				C95.886,366.268,96.501,363.965,96.501,361.517z"/>
			
				<ellipse transform="matrix(0.7071 -0.7071 0.7071 0.7071 -230.9726 163.6695)" style="fill:#FFFFFF;" cx="82.08" cy="360.643" rx="8.303" ry="8.303"/>
			<path style="opacity:0.24;fill:#FFFFFF;" d="M90.383,349.719c0,0-4.153,16.642-22.615,13.565c0,0-1.856-7.447,6.01-13.565
				C73.778,349.719,81.643,343.601,90.383,349.719z"/>
		</g>
		<g>
			<g>
				<g>
					<g>
						<path style="fill:#FFC783;" d="M59.822,119.14c-0.381-0.094-0.785-0.008-1.086,0.243c-1.067,0.891-3.441,3.224-3.034,6.061
							c0.522,3.64,18.726,14.03,33.491,10.799c14.766-3.231,12.786-11.861,11.849-13.213c-0.673-0.971-2.174-1.509-3.225-1.766
							c-0.43-0.105-1.02-1.63-1.146-2.054l-5.818-19.487c-0.232-0.779-1.136-1.131-1.834-0.715l-25.283,15.077
							c-0.199,0.119-0.361,0.29-0.468,0.496l-2.041,3.923C60.962,119.016,60.381,119.278,59.822,119.14L59.822,119.14z"/>
						<path style="fill:#FFF5C5;" d="M79.473,84.358l-19.066,34.996c0,0,22.58,14.089,37.654,2.642c0,0-9.909-51.527-17.415-39.048
							C80.327,83.478,79.764,83.814,79.473,84.358z"/>
						<g>
							<path style="fill:#FA6142;" d="M74.93,104.117c0,0-4.784,0.314-5.613,4.89c-0.83,4.576,9.466,6.443,10.504,0.723
								C80.858,104.01,74.93,104.117,74.93,104.117z"/>
							<path style="fill:#FFFFFF;" d="M73.188,109.731c0,0-1.083,0.071-1.271,1.107c-0.188,1.036,2.143,1.459,2.378,0.164
								C74.53,109.707,73.188,109.731,73.188,109.731z"/>
							<path style="fill:#FFFFFF;" d="M76.8,109.736c0,0-0.531,0.035-0.624,0.543c-0.092,0.509,1.052,0.716,1.167,0.08
								C77.459,109.724,76.8,109.736,76.8,109.736z"/>
							<path style="fill:#FFFFFF;" d="M71.287,107.555c0,0-0.532,0.035-0.624,0.543c-0.092,0.508,1.052,0.716,1.167,0.08
								C71.946,107.543,71.287,107.555,71.287,107.555z"/>
							<path style="fill:#FFFFFF;" d="M74.719,108.177c0,0-0.532,0.035-0.624,0.543c-0.092,0.508,1.052,0.716,1.167,0.08
								C75.378,108.165,74.719,108.177,74.719,108.177z"/>
							<path style="fill:#FFFFFF;" d="M73.371,106.198c0,0-0.937-1.351-1.144-0.207C72.02,107.134,74.308,107.549,73.371,106.198z"
								/>
							<path style="fill:#FFFFFF;" d="M77.011,105.676c0,0-1.351,0.936-0.415,2.288c0.937,1.352,1.144,0.208,1.351-0.937
								C78.155,105.883,77.011,105.676,77.011,105.676z"/>
						</g>
						<g>
							<path style="fill:#FA6142;" d="M83.632,122.31c0,0,3.666,3.089,7.436,0.365c3.77-2.724-2.359-11.205-7.071-7.801
								C79.285,118.279,83.632,122.31,83.632,122.31z"/>
							<path style="fill:#FFFFFF;" d="M88.78,119.471c0,0,0.83,0.699,1.683,0.083c0.854-0.617-0.534-2.537-1.601-1.766
								C87.795,118.558,88.78,119.471,88.78,119.471z"/>
							<path style="fill:#FFFFFF;" d="M86.179,116.964c0,0,0.407,0.343,0.826,0.041c0.419-0.303-0.262-1.245-0.786-0.867
								C85.696,116.516,86.179,116.964,86.179,116.964z"/>
							<path style="fill:#FFFFFF;" d="M88.641,122.357c0,0,0.407,0.343,0.826,0.041c0.419-0.303-0.262-1.245-0.786-0.867
								C88.158,121.909,88.641,122.357,88.641,122.357z"/>
							<path style="fill:#FFFFFF;" d="M86.598,119.53c0,0,0.407,0.343,0.826,0.04c0.419-0.303-0.262-1.245-0.786-0.867
								C86.115,119.082,86.598,119.53,86.598,119.53z"/>
							<path style="fill:#FFFFFF;" d="M86.198,121.891c0,0-0.261,1.623,0.681,0.942C87.822,122.152,86.46,120.268,86.198,121.891z"
								/>
							<path style="fill:#FFFFFF;" d="M83.213,119.745c0,0,1.623,0.261,1.885-1.362c0.261-1.623-0.681-0.942-1.623-0.261
								C82.532,118.802,83.213,119.745,83.213,119.745z"/>
						</g>
						<g>
							<path style="fill:#FA6142;" d="M79.773,97.978c0,0,3.666,3.089,7.436,0.365c3.77-2.724-2.359-11.206-7.071-7.801
								C75.426,93.947,79.773,97.978,79.773,97.978z"/>
							<path style="fill:#FFFFFF;" d="M84.92,95.138c0,0,0.83,0.699,1.684,0.083c0.854-0.617-0.534-2.537-1.601-1.766
								C83.936,94.226,84.92,95.138,84.92,95.138z"/>
							<path style="fill:#FFFFFF;" d="M82.32,92.631c0,0,0.407,0.343,0.826,0.04c0.419-0.303-0.262-1.245-0.786-0.867
								C81.837,92.183,82.32,92.631,82.32,92.631z"/>
							<path style="fill:#FFFFFF;" d="M84.782,98.024c0,0,0.407,0.343,0.826,0.04c0.419-0.303-0.262-1.245-0.786-0.867
								C84.299,97.576,84.782,98.024,84.782,98.024z"/>
							<path style="fill:#FFFFFF;" d="M82.739,95.197c0,0,0.407,0.343,0.826,0.041c0.419-0.303-0.262-1.245-0.786-0.867
								C82.256,94.749,82.739,95.197,82.739,95.197z"/>
							<path style="fill:#FFFFFF;" d="M82.339,97.558c0,0-0.261,1.623,0.681,0.942C83.962,97.82,82.6,95.935,82.339,97.558z"/>
							<path style="fill:#FFFFFF;" d="M79.354,95.412c0,0,1.623,0.262,1.885-1.362c0.261-1.623-0.681-0.942-1.623-0.261
								C78.673,94.469,79.354,95.412,79.354,95.412z"/>
						</g>
						<path style="fill:#FFFFFF;" d="M73.111,122.411c0,0,1.483-2.707-0.264-4.016c-1.747-1.309-1.135,0.786-0.174,0.96
							c0.96,0.174,0.612,2.095-0.348,1.921c-0.96-0.174-2.881-0.522-2.359-3.404c0.522-2.881,5.325-2.01,7.071-0.702
							c1.747,1.309,0.264,4.016-0.697,3.842c-0.961-0.174,0.348-1.921-0.612-2.095c-0.96-0.174-1.309,1.747-0.522,2.881
							S72.762,124.331,73.111,122.411z"/>
						<path style="fill:#FFFFFF;" d="M89.346,105.718c0,0-2.719,1.462-1.967,3.511c0.752,2.049,1.38-0.041,0.669-0.71
							c-0.71-0.669,0.628-2.09,1.339-1.421c0.71,0.669,2.131,2.008,0.123,4.139c-2.008,2.131-5.56-1.216-6.312-3.265
							c-0.752-2.049,1.967-3.511,2.677-2.842c0.71,0.669-1.339,1.421-0.628,2.09c0.71,0.669,2.049-0.751,2.008-2.131
							C87.215,103.71,90.685,104.298,89.346,105.718z"/>
						<path style="fill:#FFFFFF;" d="M77.819,96.76c0,0-2.461,1.324-1.781,3.179c0.68,1.855,1.249-0.037,0.606-0.643
							c-0.643-0.606,0.569-1.892,1.212-1.286c0.643,0.606,1.93,1.818,0.111,3.748c-1.818,1.929-5.034-1.101-5.714-2.956
							c-0.68-1.855,1.781-3.179,2.424-2.573c0.643,0.606-1.212,1.286-0.569,1.892c0.643,0.606,1.855-0.68,1.818-1.93
							C75.89,94.942,79.031,95.474,77.819,96.76z"/>
						<g>
							<path style="fill:#F9E487;" d="M81.889,85.291c0,0-2.495,0.729-1.559,2.081C81.267,88.723,84.177,85.706,81.889,85.291z"/>
							<path style="opacity:0.53;fill:#FFFFFF;" d="M82.264,86.924c0,0,0.151-0.835-0.835-0.151
								c-0.986,0.683-0.552,0.934-0.552,0.934S82.113,87.758,82.264,86.924z"/>
						</g>
						<g>
							<path style="fill:#F9E487;" d="M87.012,100.477c0,0,1.113,2.35,2.3,1.212C90.5,100.552,87.062,98.152,87.012,100.477z"/>
							<path style="opacity:0.53;fill:#FFFFFF;" d="M88.566,99.85c0,0-0.848-0.018-0.018,0.848c0.83,0.866,1.009,0.398,1.009,0.398
								S89.414,99.868,88.566,99.85z"/>
						</g>
						<g>
							<path style="fill:#F9E487;" d="M67.816,115.801c0,0-2.296,1.219-1.106,2.353C67.901,119.288,70.141,115.745,67.816,115.801z"
								/>
							<path style="opacity:0.53;fill:#FFFFFF;" d="M68.514,117.324c0,0-0.021-0.848-0.848,0.021
								c-0.827,0.869-0.351,1.026-0.351,1.026S68.535,118.172,68.514,117.324z"/>
						</g>
						<g>
							<path style="fill:#F9E487;" d="M95.273,120.78c0,0-2.296,1.219-1.106,2.353C95.358,124.267,97.598,120.723,95.273,120.78z"/>
							<path style="opacity:0.53;fill:#FFFFFF;" d="M95.971,122.303c0,0-0.021-0.848-0.848,0.021
								c-0.827,0.869-0.351,1.026-0.351,1.026S95.991,123.151,95.971,122.303z"/>
						</g>
						<g>
							<path style="fill:#F9E487;" d="M78.388,115.456c0,0,1.112,2.35,2.3,1.212C81.875,115.531,78.438,113.132,78.388,115.456z"/>
							<path style="opacity:0.53;fill:#FFFFFF;" d="M79.941,114.829c0,0-0.848-0.018-0.018,0.848
								c0.83,0.866,1.009,0.398,1.009,0.398S80.789,114.848,79.941,114.829z"/>
						</g>
						<path style="fill:#2E353D;" d="M101.349,123.684c0,0-8.117,19.786-35.463,9.217c0,0,17.96,9.422,31.584,0.298
							c2.395-1.604,4.069-4.153,4.28-7.027C101.82,125.219,101.738,124.311,101.349,123.684z"/>
					</g>
					<g>
						
							<text transform="matrix(1 0 0 1 68.3379 149.2896)" style="fill:#2E353D; font-family:'Montserrat-Black'; font-size:7.4553px;">FOOD</text>
					</g>
				</g>
				<circle style="fill:none;stroke:#2E353D;stroke-miterlimit:10;stroke-dasharray:1,4;" cx="81.5" cy="118.5" r="42"/>
			</g>
			
				<line style="fill:none;stroke:#2E353D;stroke-miterlimit:10;stroke-dasharray:1,4;" x1="123.5" y1="121.249" x2="219.5" y2="142.5"/>
		</g>
		<g>
			<g>
				<g>
					<g>
						<g>
							<path style="fill:#2E353D;" d="M435.633,95.717c-15.754,2.395-26.526,10.488-28.87,12.383
								c-0.202,0.163-0.468,0.22-0.719,0.155c-2.89-0.757-15.379-3.499-30.537,0.993c-0.377,0.112-0.618,0.482-0.572,0.872
								l2.686,22.788c0.061,0.518,0.587,0.845,1.078,0.668c3.703-1.34,17.526-5.695,30.229-1.28
								c2.183,0.759,4.589,0.222,6.242-1.394c9.629-9.412,24.004-11.419,27.916-11.8c0.518-0.05,0.852-0.568,0.688-1.062
								l-7.25-21.775C436.399,95.891,436.022,95.658,435.633,95.717z"/>
							<path style="fill:#FF8F9A;" d="M435.461,95.034c-15.754,2.396-26.526,10.488-28.87,12.383
								c-0.202,0.163-0.468,0.22-0.719,0.155c-2.89-0.757-15.379-3.499-30.537,0.993c-0.377,0.112-0.618,0.482-0.572,0.872
								l2.686,22.788c0.061,0.518,0.587,0.845,1.078,0.668c3.703-1.34,17.526-5.695,30.229-1.28
								c2.183,0.759,4.589,0.221,6.242-1.394c9.629-9.412,24.004-11.419,27.916-11.8c0.518-0.05,0.852-0.568,0.688-1.062
								l-7.25-21.775C436.227,95.207,435.85,94.974,435.461,95.034z"/>
							<path style="fill:#D8D8D8;" d="M433.518,95.195c-15.666,2.199-26.122,10.593-27.468,11.721
								c-1.749-0.494-14.044-3.636-29.052,0.995l2.655,22.528c0,0,16.455-6.839,30.548-0.789c0.862,0.37,1.87,0.145,2.493-0.556
								c10.188-11.471,27.99-12.377,27.99-12.377L433.518,95.195z"/>
							<path style="fill:#FFFFFF;" d="M404.967,103.568c0,0,9.795-8.461,24.807-10.568l6.265,19.21c0,0-17.074,1.068-25.973,12.361
								L404.967,103.568z"/>
							<path style="fill:#EAEAEA;" d="M405.33,103.504c0,0-11.665-3.638-26.15,0.831l2.372,20.125c0,0,15.91-6.286,28.764,0.157
								L405.33,103.504z"/>
							<path style="fill:#E8E8E8;" d="M379.17,104.369c0,0-0.789,1.773-2.241,3.407l2.826,22.76c0,0,1.592-2.297,1.844-6.123
								L379.17,104.369z"/>
							<path style="fill:#E8E8E8;" d="M429.774,93c0,0,1.34,1.529,3.623,1.871l7.301,21.902c0,0-2.283-0.342-4.607-4.434L429.774,93
								z"/>
						</g>
					</g>
					
						<text transform="matrix(1 0 0 1 395.5498 143.7212)" style="fill:#2E353D; font-family:'Montserrat-Black'; font-size:7.4553px;">BOOKS</text>
					<path style="fill:#FF8F9A;" d="M422.387,102.574c-0.56-0.736-1.825-0.951-2.882-0.555c-1.057,0.396-1.687,1.322-1.376,2.151
						c0.003,0.008,0.008,0.016,0.011,0.024l-0.003,0.002c-0.003-0.009-0.004-0.017-0.008-0.026
						c-0.311-0.829-1.395-1.112-2.451-0.716c-1.057,0.396-1.868,1.39-1.806,2.313c0.043,0.643,0.494,1.1,1.162,1.237l0,0
						l4.877,1.914l2.529-4.818c0.028-0.047,0.052-0.095,0.075-0.143l0.017-0.032l0,0
						C422.736,103.469,422.696,102.981,422.387,102.574z"/>
				</g>
				<circle style="fill:none;stroke:#2E353D;stroke-miterlimit:10;stroke-dasharray:1,4;" cx="408.5" cy="118.5" r="42"/>
			</g>
			
				<line style="fill:none;stroke:#2E353D;stroke-miterlimit:10;stroke-dasharray:1,4;" x1="366.583" y1="128" x2="291.5" y2="142.5"/>
		</g>
		<g>
			<g>
				<g>
					<g>
						
							<text transform="matrix(1 0 0 1 397.0381 272.1934)" style="fill:#2E353D; font-family:'Montserrat-Black'; font-size:7.4553px;">GAMER</text>
					</g>
					<g>
						<path style="fill:#5F41E9;" d="M426.318,252.652h-32.619c-5.231,0-9.512-4.28-9.512-9.512v-4.244
							c0-5.231,4.28-9.512,9.512-9.512h28.375c7.566,0,13.756,6.19,13.756,13.756l0,0
							C435.829,248.372,431.549,252.652,426.318,252.652z"/>
						<path style="fill:#303030;" d="M392.699,227.115c0,0,1.702-2.27,2.837-2.27c1.135,0,3.973,3.405,6.242,3.405
							c2.837,0,2.837,1.702,2.837,1.702h-5.675L392.699,227.115z"/>
						<path style="fill:#303030;" d="M426.182,227.115c0,0-1.702-2.27-2.837-2.27s-3.973,3.405-6.242,3.405
							c-2.837,0-2.837,1.702-2.837,1.702h5.675L426.182,227.115z"/>
						<path style="fill:#5F41E9;" d="M420.507,248.963c0,3.291-2.668,5.959-5.959,5.959c-3.291,0-5.959-2.668-5.959-5.959
							c0-3.291,2.668-5.959,5.959-5.959C417.839,243.005,420.507,245.672,420.507,248.963z"/>
						<g>
							<path style="fill:#5F41E9;" d="M395.821,226.604c-3.271-1.259-6.976,0.074-8.769,3.086
								c-4.151,6.974-12.651,21.797-13.079,26.934c-0.568,6.81,15.323,0,20.997-9.08h18.16l1.702-18.16h-12.12
								c-1.526,0-2.999-0.503-4.251-1.377C397.781,227.534,396.896,227.018,395.821,226.604z"/>
							<path style="fill:#5F41E9;" d="M423.046,226.604c3.271-1.259,6.977,0.074,8.769,3.086
								c4.151,6.974,12.651,21.797,13.079,26.934c0.568,6.81-15.323,0-20.997-9.08h-18.16l-1.703-18.16h12.12
								c1.526,0,2.999-0.503,4.251-1.377C421.085,227.534,421.97,227.018,423.046,226.604z"/>
						</g>
						<path style="fill:#7867EF;" d="M400.077,238.465c0,3.134-2.541,5.675-5.675,5.675c-3.134,0-5.675-2.541-5.675-5.675
							s2.541-5.675,5.675-5.675C397.536,232.79,400.077,235.33,400.077,238.465z"/>
						<path style="fill:#7867EF;" d="M430.154,238.465c0,3.134-2.541,5.675-5.675,5.675c-3.134,0-5.675-2.541-5.675-5.675
							s2.541-5.675,5.675-5.675C427.614,232.79,430.154,235.33,430.154,238.465z"/>
						<g>
							<path style="fill:#303030;" d="M393.288,233.925h2.227c0.219,0,0.396,0.177,0.396,0.396v1.956
								c0,0.105-0.042,0.206-0.116,0.28l-1.114,1.114c-0.155,0.155-0.406,0.155-0.56,0l-1.114-1.114
								c-0.074-0.074-0.116-0.175-0.116-0.28v-1.956C392.892,234.102,393.069,233.925,393.288,233.925z"/>
							<path style="fill:#303030;" d="M395.516,242.82h-2.227c-0.219,0-0.396-0.177-0.396-0.396v-1.956
								c0-0.105,0.042-0.206,0.116-0.28l1.114-1.114c0.155-0.155,0.406-0.155,0.56,0l1.114,1.114
								c0.074,0.074,0.116,0.175,0.116,0.28v1.956C395.912,242.642,395.734,242.82,395.516,242.82z"/>
							<path style="fill:#303030;" d="M389.954,239.486v-2.227c0-0.219,0.177-0.396,0.396-0.396h1.956
								c0.105,0,0.206,0.042,0.28,0.116l1.114,1.114c0.155,0.155,0.155,0.406,0,0.56l-1.114,1.114
								c-0.074,0.074-0.175,0.116-0.28,0.116h-1.956C390.132,239.882,389.954,239.704,389.954,239.486z"/>
							<path style="fill:#303030;" d="M398.849,237.258v2.227c0,0.219-0.177,0.396-0.396,0.396h-1.956
								c-0.105,0-0.206-0.042-0.28-0.116l-1.114-1.114c-0.155-0.155-0.155-0.406,0-0.56l1.114-1.114
								c0.074-0.074,0.175-0.116,0.28-0.116h1.956C398.672,236.862,398.849,237.04,398.849,237.258z"/>
						</g>
						<path style="fill:#303030;" d="M384.187,231.655"/>
						<path style="fill:#FF8F9A;" d="M422.777,238.181c0,0.784-0.635,1.419-1.419,1.419c-0.784,0-1.419-0.635-1.419-1.419
							c0-0.784,0.635-1.419,1.419-1.419C422.142,236.762,422.777,237.397,422.777,238.181z"/>
						<path style="fill:#FF8F9A;" d="M425.614,235.343c0,0.784-0.635,1.419-1.419,1.419c-0.784,0-1.419-0.635-1.419-1.419
							c0-0.784,0.635-1.419,1.419-1.419C424.979,233.925,425.614,234.56,425.614,235.343z"/>
						<path style="fill:#303030;" d="M425.614,241.018c0,0.784-0.635,1.419-1.419,1.419c-0.784,0-1.419-0.635-1.419-1.419
							c0-0.783,0.635-1.419,1.419-1.419C424.979,239.6,425.614,240.235,425.614,241.018z"/>
						<path style="fill:#303030;" d="M428.452,238.181c0,0.784-0.635,1.419-1.419,1.419c-0.783,0-1.419-0.635-1.419-1.419
							c0-0.784,0.635-1.419,1.419-1.419C427.817,236.762,428.452,237.397,428.452,238.181z"/>
						<circle style="fill:#5F41E9;" cx="379.647" cy="257.192" r="5.675"/>
						<circle style="fill:#5F41E9;" cx="439.234" cy="257.192" r="5.675"/>
						<polygon style="fill:#5F41E9;" points="392.134,251.114 383.995,260.838 384.187,255.49 388.727,252.085 						"/>
						<polygon style="fill:#5F41E9;" points="426.434,250.802 434.579,260.436 435.262,253.787 430.722,252.085 						"/>
						<path style="fill:#5F41E9;" d="M408.589,248.963c0,3.291-2.668,5.959-5.959,5.959c-3.291,0-5.959-2.668-5.959-5.959
							c0-3.291,2.668-5.959,5.959-5.959C405.922,243.005,408.589,245.672,408.589,248.963z"/>
						<path style="fill:#303030;" d="M406.319,248.963c0,2.037-1.652,3.689-3.689,3.689c-2.037,0-3.689-1.651-3.689-3.689
							c0-2.037,1.651-3.689,3.689-3.689C404.668,245.275,406.319,246.926,406.319,248.963z"/>
						<path style="fill:#303030;" d="M418.237,248.963c0,2.037-1.651,3.689-3.689,3.689c-2.037,0-3.689-1.651-3.689-3.689
							c0-2.037,1.652-3.689,3.689-3.689C416.585,245.275,418.237,246.926,418.237,248.963z"/>
						<rect x="407.454" y="245.842" style="fill:#5F41E9;" width="2.27" height="3.405"/>
						<path style="fill:#303030;" d="M389.61,254.13c0,0-12.233,7.034-15.076,0c0,0-2.432,5.201,1.141,7.602
							c3.572,2.401,6.677,0.45,6.677,0.45s1.267-0.592,2.97-2.791C387.024,257.192,389.61,254.13,389.61,254.13z"/>
						<path style="fill:#303030;" d="M429.34,254.305c0,0,12.215,6.376,15.001-0.518c0,0,2.159,5.616-1.343,7.969
							c-3.501,2.353-6.545,0.441-6.545,0.441s-1.242-0.58-2.911-2.736C431.874,257.306,429.34,254.305,429.34,254.305z"/>
						<rect x="403.482" y="232.79" style="fill:#303030;" width="10.782" height="1.135"/>
						<path style="fill:#303030;" d="M408.091,240.333l-1.605,1.605c-0.222,0.222-0.581,0.222-0.803,0l0,0
							c-0.222-0.222-0.222-0.581,0-0.803l1.605-1.605c0.222-0.222,0.581-0.222,0.803,0l0,0
							C408.312,239.752,408.312,240.112,408.091,240.333z"/>
						<path style="fill:#303030;" d="M413.198,240.333l-1.605,1.605c-0.222,0.222-0.581,0.222-0.803,0l0,0
							c-0.222-0.222-0.222-0.581,0-0.803l1.605-1.605c0.222-0.222,0.581-0.222,0.802,0l0,0
							C413.42,239.752,413.42,240.112,413.198,240.333z"/>
					</g>
				</g>
				<circle style="fill:none;stroke:#2E353D;stroke-miterlimit:10;stroke-dasharray:1,4;" cx="408.5" cy="247.5" r="42"/>
			</g>
			
				<line style="fill:none;stroke:#2E353D;stroke-miterlimit:10;stroke-dasharray:1,4;" x1="367.5" y1="247.5" x2="308.5" y2="245.5"/>
		</g>
		<g>
			<g>
				<g>
					<g>
						<path style="fill:#FFC783;" d="M417.921,346.608l-6.206-0.005l0,0c0,0-1.931-2.647-5.389-3.464
							c-3.458-0.817-4.885,2.133-5.803,4.472s-9.71,55.034-9.71,55.034l0,0c0,0,0.101,1.119-1.018,1.22
							c-1.119,0.101-0.761-2.188-0.761-2.188s2.707-13.784,3.116-15.513c0.408-1.729-1.008-11.192-1.008-11.192
							s0.459-1.17,0.358-2.289c-0.101-1.119-7.376-0.464-10.481,2.637c-3.106,3.101-3.363,6.509-1.634,6.917
							c1.729,0.408,3.307-0.862,3.307-0.862l2.692,4.835l-2.116,15.082c-0.187,1.335,0.076,2.694,0.749,3.863l1.042,1.811
							c1.178,2.047,3.44,3.223,5.793,3.011l0,0c2.119-0.191,3.982-1.479,4.909-3.395l0.909-1.878
							c0.299-0.618,0.49-1.282,0.567-1.964l6.121-54.681c0.051-0.451,0.36-1.078,0.688-1.392l0.328-0.315
							c0.13-0.125,0.28-0.239,0.445-0.341c1.405-0.868,3.255-0.453,4.293,0.832l0.853,1.056c0.509,0.314,1.106,0.456,1.702,0.402
							l5.848,0.037l0,0l2.748-0.812l-0.05-0.56L417.921,346.608z"/>
					</g>
					<g>
						<polygon style="fill:#FBB03B;" points="413.953,346.401 413.595,348.69 418.682,348.796 419.392,348.012 421.939,347.374 
							421.838,346.255 						"/>
					</g>
					<g>
						
							<rect x="398.146" y="357.912" transform="matrix(0.2298 -0.9732 0.9732 0.2298 -42.3428 664.0939)" style="fill:#FBB03B;" width="0.562" height="1.777"/>
					</g>
					<g>
						
							<rect x="397.788" y="360.201" transform="matrix(0.2298 -0.9732 0.9732 0.2298 -44.8294 665.5326)" style="fill:#FBB03B;" width="0.562" height="1.777"/>
					</g>
					<g>
						
							<rect x="397.431" y="362.49" transform="matrix(0.2299 -0.9732 0.9732 0.2299 -47.3533 666.917)" style="fill:#FBB03B;" width="0.562" height="1.777"/>
					</g>
					<g>
						
							<rect x="397.073" y="364.779" transform="matrix(0.2298 -0.9732 0.9732 0.2298 -49.8526 668.3372)" style="fill:#FBB03B;" width="0.562" height="1.777"/>
					</g>
					<g>
						
							<rect x="396.715" y="367.068" transform="matrix(0.2299 -0.9732 0.9732 0.2299 -52.3599 669.7458)" style="fill:#FBB03B;" width="0.562" height="1.777"/>
					</g>
					<g>
						
							<rect x="396.357" y="369.357" transform="matrix(0.2298 -0.9732 0.9732 0.2298 -54.8593 671.1661)" style="fill:#FBB03B;" width="0.562" height="1.777"/>
					</g>
					<g>
						
							<rect x="395.999" y="371.646" transform="matrix(0.2298 -0.9732 0.9732 0.2298 -57.35 672.5994)" style="fill:#FBB03B;" width="0.562" height="1.777"/>
					</g>
					<g>
						
							<rect x="395.641" y="373.934" transform="matrix(0.2298 -0.9732 0.9732 0.2298 -59.8658 673.9949)" style="fill:#FBB03B;" width="0.562" height="1.777"/>
					</g>
					<g>
						
							<rect x="395.283" y="376.223" transform="matrix(0.2298 -0.9732 0.9732 0.2298 -62.3691 675.4093)" style="fill:#FBB03B;" width="0.562" height="1.777"/>
					</g>
					<g>
						
							<rect x="394.925" y="378.512" transform="matrix(0.2299 -0.9732 0.9732 0.2299 -64.8763 676.8178)" style="fill:#FBB03B;" width="0.562" height="1.777"/>
					</g>
					<g>
						<path style="fill:#F5A100;" d="M394.443,379.186c-0.053,0.357-0.241,0.625-0.42,0.598c-0.178-0.027-0.28-0.338-0.226-0.695
							c0.053-0.357,0.241-0.625,0.42-0.598C394.395,378.518,394.497,378.829,394.443,379.186z"/>
					</g>
					<g>
						<path style="fill:#F5A100;" d="M394.801,376.897c-0.053,0.357-0.241,0.625-0.42,0.598c-0.178-0.027-0.28-0.338-0.226-0.695
							c0.053-0.357,0.241-0.625,0.42-0.598C394.753,376.229,394.855,376.54,394.801,376.897z"/>
					</g>
					<g>
						<path style="fill:#F5A100;" d="M395.159,374.608c-0.053,0.357-0.242,0.625-0.42,0.598c-0.178-0.027-0.28-0.338-0.226-0.695
							s0.241-0.625,0.42-0.598C395.111,373.94,395.213,374.251,395.159,374.608z"/>
					</g>
					<g>
						<path style="fill:#F5A100;" d="M395.517,372.32c-0.053,0.357-0.241,0.625-0.42,0.598c-0.178-0.027-0.28-0.338-0.226-0.695
							c0.053-0.357,0.241-0.625,0.42-0.598C395.469,371.652,395.571,371.963,395.517,372.32z"/>
					</g>
					<g>
						<path style="fill:#F5A100;" d="M395.875,370.031c-0.054,0.357-0.241,0.625-0.42,0.598c-0.178-0.027-0.28-0.338-0.226-0.695
							c0.053-0.357,0.241-0.625,0.42-0.598C395.827,369.363,395.929,369.674,395.875,370.031z"/>
					</g>
					<g>
						<path style="fill:#F5A100;" d="M396.233,367.742c-0.053,0.357-0.241,0.625-0.42,0.598s-0.28-0.338-0.227-0.695
							c0.053-0.357,0.242-0.625,0.42-0.598C396.185,367.074,396.287,367.385,396.233,367.742z"/>
					</g>
					<g>
						<path style="fill:#F5A100;" d="M396.591,365.453c-0.053,0.357-0.241,0.625-0.42,0.598c-0.178-0.027-0.28-0.338-0.226-0.695
							s0.241-0.625,0.42-0.598C396.543,364.785,396.645,365.096,396.591,365.453z"/>
					</g>
					<g>
						<path style="fill:#F5A100;" d="M396.949,363.164c-0.053,0.357-0.241,0.625-0.42,0.598c-0.178-0.027-0.28-0.338-0.226-0.695
							c0.053-0.357,0.241-0.625,0.42-0.598C396.901,362.496,397.003,362.807,396.949,363.164z"/>
					</g>
					<g>
						<path style="fill:#F5A100;" d="M397.307,360.875c-0.053,0.357-0.241,0.625-0.42,0.598c-0.178-0.027-0.28-0.338-0.226-0.695
							s0.241-0.625,0.42-0.598C397.259,360.207,397.361,360.518,397.307,360.875z"/>
					</g>
					<g>
						<path style="fill:#F5A100;" d="M397.665,358.586c-0.053,0.357-0.241,0.625-0.42,0.598c-0.178-0.027-0.28-0.338-0.226-0.695
							c0.053-0.357,0.241-0.625,0.42-0.598C397.617,357.918,397.718,358.229,397.665,358.586z"/>
					</g>
					<g>
						<path style="fill:#FFC783;" d="M389.681,371.261c-1.496-0.102-2.984,0.274-4.298,0.996c-1.358,0.745-2.719,1.44-4.875,3.673
							c-3.575,3.7-1.684,6.357-1.684,6.357s0.861,0.826,3.917-0.353c3.816-1.472,6.872-5.132,8.399-6.962
							C392.235,373.659,392.954,371.483,389.681,371.261z"/>
					</g>
					<g>
						<path style="fill:#F7931E;" d="M388.86,373.545c-1.018-0.069-2.031,0.187-2.925,0.678c-0.924,0.507-1.85,0.98-3.318,2.499
							c-2.432,2.518-1.146,4.326-1.146,4.326s0.586,0.562,2.666-0.24c2.597-1.002,4.676-3.493,5.716-4.738
							C390.598,375.177,391.087,373.696,388.86,373.545z"/>
					</g>
				</g>
				<g>
					<text transform="matrix(1 0 0 1 407.5645 379.3613)"><tspan x="0" y="0" style="fill:#2E353D; font-family:'Montserrat-Black'; font-size:7.4553px;">BLUES</tspan><tspan x="0" y="8.946" style="fill:#2E353D; font-family:'Montserrat-Black'; font-size:7.4553px;">LOVER</tspan></text>
				</g>
				<circle style="fill:none;stroke:#2E353D;stroke-miterlimit:10;stroke-dasharray:1,4;" cx="408.5" cy="375.5" r="42"/>
			</g>
			
				<line style="fill:none;stroke:#2E353D;stroke-miterlimit:10;stroke-dasharray:1,4;" x1="366.5" y1="375.5" x2="301.5" y2="368.5"/>
		</g>
	</g>
	<g>
		<circle style="fill:none;stroke:#2E353D;stroke-miterlimit:10;stroke-dasharray:1,4;" cx="81.5" cy="375.5" r="42"/>
		
			<line style="fill:none;stroke:#2E353D;stroke-miterlimit:10;stroke-dasharray:1,4;" x1="123.5" y1="375.5" x2="188.5" y2="368.5"/>
	</g>
</g>
</svg>
