<?xml version="1.0" encoding="utf-8"?>
<!-- Generator: Adobe Illustrator 27.5.0, SVG Export Plug-In . SVG Version: 6.00 Build 0)  -->
<svg version="1.1" xmlns="http://www.w3.org/2000/svg" xmlns:xlink="http://www.w3.org/1999/xlink" x="0px" y="0px"
	 viewBox="0 0 1200 400" style="enable-background:new 0 0 1200 400;" xml:space="preserve">
<g id="Background">
	<rect transform="matrix(-1 -1.224647e-16 1.224647e-16 -1 1200 400)" style="fill:#FAFDFF;" width="1200" height="400"/>
</g>
<g id="Graphic_elements">
	<g>
		<defs>
			<rect id="SVGID_1_" width="1200" height="400"/>
		</defs>
		<clipPath id="SVGID_00000061440245968074067030000001007320689351822527_">
			<use xlink:href="#SVGID_1_"  style="overflow:visible;"/>
		</clipPath>
		<g style="clip-path:url(#SVGID_00000061440245968074067030000001007320689351822527_);">
			<path style="fill:#B3DCF0;" d="M170.756,637.956L25.402,492.603c-4.4-4.4-4.4-11.533,0-15.933l145.354-145.354
				c4.4-4.4,11.533-4.4,15.933,0L332.042,476.67c4.4,4.4,4.4,11.533,0,15.933L186.688,637.956
				C182.289,642.356,175.156,642.356,170.756,637.956z"/>
			
				<rect x="239.774" y="545.688" transform="matrix(0.7071 0.7071 -0.7071 0.7071 570.1345 -56.957)" style="fill:none;stroke:#B3DCF0;stroke-linecap:round;stroke-linejoin:round;stroke-miterlimit:10;" width="228.093" height="228.093"/>
			<path style="fill:#F2F9FF;" d="M170.863-72.208L25.51-217.561c-4.4-4.4-4.4-11.533,0-15.933l145.354-145.354
				c4.4-4.4,11.533-4.4,15.933,0L332.15-233.494c4.4,4.4,4.4,11.533,0,15.933L186.796-72.208
				C182.396-67.808,175.263-67.808,170.863-72.208z"/>
			<path style="fill:#B3DCF0;" d="M-9.174,107.83L-154.528-37.524c-4.4-4.4-4.4-11.533,0-15.933L-9.174-198.81
				c4.4-4.4,11.533-4.4,15.933,0L152.112-53.456c4.4,4.4,4.4,11.533,0,15.933L6.758,107.83C2.359,112.23-4.775,112.23-9.174,107.83z
				"/>
			
				<rect x="242.297" y="-162.06" transform="matrix(0.7071 0.7071 -0.7071 0.7071 70.42 -266.0359)" style="opacity:0.5;fill:none;stroke:#62ACD9;stroke-linecap:round;stroke-linejoin:round;stroke-miterlimit:10;" width="228.093" height="228.093"/>
			<path style="fill:#F2F9FF;" d="M525.892,282.821L380.538,137.467c-4.4-4.4-4.4-11.533,0-15.933L525.892-23.819
				c4.4-4.4,11.533-4.4,15.933,0l145.354,145.354c4.4,4.4,4.4,11.533,0,15.933L541.824,282.821
				C537.425,287.22,530.291,287.22,525.892,282.821z"/>
			<path style="fill:#E7F6FF;" d="M-6.758,460.442l-145.353-145.354c-4.4-4.4-4.4-11.533,0-15.933L168.34-21.296
				c4.4-4.4,11.533-4.4,15.933,0l145.354,145.354c4.4,4.4,4.4,11.533,0,15.933L9.174,460.442
				C4.775,464.842-2.359,464.842-6.758,460.442z"/>
			<path style="fill:#77BAD5;" d="M345.854,462.858L200.501,317.505c-4.4-4.4-4.4-11.533,0-15.933l145.354-145.354
				c4.4-4.4,11.533-4.4,15.933,0L507.14,301.572c4.4,4.4,4.4,11.533,0,15.933L361.787,462.858
				C357.387,467.258,350.254,467.258,345.854,462.858z"/>
		</g>
	</g>
</g>
</svg>
